User Type,Username,Date,Text
,ABScbn,2010-07-14T23:46Z,"IMDB: http://www.imdb.com/title/tt0499549/nnIMDB: http://www.imdb.com/title/tt0499549/nnAvatar (2009) More at IMDbPro ?nad feedbacknnWhen his brother is killed in a robbery, paraplegic Marine Jake Sully ndecides to take his place in a mission on the distant world of Pandora. nThere he learns of greedy corporate figurehead Parker Selfridge\'s nintentions of driving off the native humanoid \""Na\'vi\"" in order to mine nfor the precious material scattered throughout their rich woodland. In nexchange for the spinal surgery that will fix his legs, Jake gathers nintel for the cooperating military unit spearheaded by gung-ho Colonel nQuaritch, while simultaneously attempting to infiltrate the Na\'vi people nwith the use of an \""avatar\"" identity. While Jake begins to bond with the nnative tribe and quickly falls in love with the beautiful alien Neytiri, nthe restless Colonel moves forward with his ruthless extermination tactics, nforcing the soldier to take a stand - and fight back in an epic battle for nthe fate of Pandora. nnGeneralnComplete name                    : D:\\UPLOADS\\Avatar dvdrip (eng, esp, fre) h264\\Avatar.m4vnFormat                           : MPEG-4nFormat profile                   : Base Media / Version 2nCodec ID                         : mp42nFile size                        : 1.90 GiBnDuration                         : 2h 41mnnOverall bit rate                 : 1 683 KbpsnEncoded date                     : UTC 2010-07-14 15:21:37nTagged date                      : UTC 2010-07-14 16:03:42nWriting application              : HandBrake 0.9.4 2009112300nnVideonID                               : 1nFormat                           : AVCnFormat/Info                      : Advanced Video CodecnFormat profile                   : Main@L3.0nFormat settings, CABAC           : YesnFormat settings, ReFrames        : 2 framesnCodec ID                         : avc1nCodec ID/Info                    : Advanced Video CodingnDuration                         : 2h 41mnnBit rate mode                    : VariablenBit rate                         : 1 194 KbpsnWidth                            : 688 pixelsnHeight                           : 384 pixelsnDisplay aspect ratio             : 16:9nFrame rate mode                  : VariablenFrame rate                       : 23.976 fpsnMinimum frame rate               : 11.533 fpsnMaximum frame rate               : 29.970 fpsnColor space                      : YUVnChroma subsampling               : 4:2:0nBit depth                        : 8 bitsnScan type                        : ProgressivenBits/(Pixel*Frame)               : 0.188nStream size                      : 1.35 GiB (71%)nWriting library                  : x264 core 79nnEncoded date                     : UTC 2010-07-14 15:21:37nTagged date                      : UTC 2010-07-14 16:03:42nColor primaries                  : BT.601-6 525, BT.1358 525, BT.1700 NTSC, SMPTE 170MnTransfer characteristics         : BT.709-5, BT.1361nMatrix coefficients              : BT.601-6 525, BT.1358 525, BT.1700 NTSC, SMPTE 170MnnAudio #1nID                               : 2nFormat                           : AACnFormat/Info                      : Advanced Audio CodecnFormat version                   : Version 4nFormat profile                   : LCnFormat settings, SBR             : NonCodec ID                         : 40nDuration                         : 2h 41mnnBit rate mode                    : VariablenBit rate                         : 160 KbpsnMaximum bit rate                 : 220 KbpsnChannel(s)                       : 2 channelsnChannel positions                : Front: L RnSampling rate                    : 48.0 KHznStream size                      : 185 MiB (10%)nLanguage                         : EnglishnEncoded date                     : UTC 2010-07-14 15:21:37nTagged date                      : UTC 2010-07-14 16:03:42nnAudio #2nID                               : 3nFormat                           : AACnFormat/Info            "
,sunbleached,2010-07-14T23:49Z,RETARDRETARDRETARD___RETARERETARDRETARDRE___TARDRETARDRETARDRETARDRETAR___DRETARDRETARDRETARD
,sunbleached,2010-07-15T00:45Z,oops sorry my bad. The comment above by me was meant for another movie. This torrent is most likely fine
,sunbleached,2010-07-15T00:46Z,"[especially judging from the uploaders track record. - once again, my apologies....]"
,ABScbn,2010-07-15T01:52Z,hahaahaha. that\'s ok. i was trying to put the description  but couldn\'t so i just pasted it in the comments and it came out that way... :(
,Mtbakerwanderer,2010-07-30T09:35Z,subtitle?
